<svg xmlns="http://www.w3.org/2000/svg" width="737" height="460" viewBox="0 0 737 460" font-family="ui-monospace,DejaVu Sans Mono,Consolas,monospace">
<rect x="1" y="1" width="735" height="458" rx="8" fill="#070a11" stroke="#283557" stroke-width="3"/>
<rect x="1" y="1" width="735" height="34" rx="8" fill="#141c30"/>
<rect x="1" y="20" width="735" height="15" fill="#141c30"/>
<rect x="18" y="12" width="11" height="11" fill="#ff5d5d"/>
<rect x="36" y="12" width="11" height="11" fill="#ffd866"/>
<rect x="54" y="12" width="11" height="11" fill="#5af78e"/>
<text x="74" y="22" font-size="11" fill="#8b95ad">aegis run</text>
<text x="18.0 27.1 36.2 45.3 54.4 63.5 72.6 81.7 90.8 99.9 109.0 118.1 127.2" y="48" font-size="15"><tspan fill="#cdd6e6">$&#160;aegis&#160;queue</tspan></text>
<text x="18.0 27.1 36.2 45.3 54.4 63.5 72.6 81.7 90.8 99.9 109.0 118.1 127.2 136.3 145.4 154.5 163.6 172.7 181.8 190.9 200.0 209.1 218.2 227.3 236.4 245.5 254.6 263.7 272.8 281.9 291.0 300.1 309.2 318.3" y="68" font-size="15"><tspan fill="#cdd6e6">id&#160;&#160;&#160;&#160;&#160;&#160;&#160;&#160;&#160;&#160;class&#160;&#160;&#160;&#160;&#160;&#160;&#160;&#160;&#160;&#160;command</tspan></text>
<text x="18.0 27.1 36.2 45.3 54.4 63.5 72.6 81.7 90.8 99.9 109.0 118.1 127.2 136.3 145.4 154.5 163.6 172.7 181.8 190.9 200.0 209.1 218.2 227.3 236.4 245.5 254.6 263.7 272.8 281.9 291.0 300.1 309.2 318.3 327.4 336.5 345.6 354.7 363.8 372.9 382.0 391.1 400.2 409.3 418.4 427.5 436.6 445.7 454.8 463.9 473.0 482.1 491.2 500.3" y="88" font-size="15"><tspan fill="#cdd6e6">50d56fd9&#160;&#160;&#160;&#160;</tspan><tspan fill="#ff5d5d">catastrophic</tspan><tspan fill="#cdd6e6">&#160;&#160;&#160;</tspan><tspan fill="#ff5d5d">rm&#160;-rf&#160;site/.playwright-mcp</tspan></text>
<text x="18" y="108" font-size="15"></text>
<text x="18.0 27.1 36.2 45.3 54.4 63.5 72.6 81.7 90.8 99.9 109.0 118.1 127.2 136.3 145.4 154.5 163.6 172.7 181.8 190.9 200.0 209.1 218.2 227.3 236.4 245.5 254.6 263.7 272.8 281.9 291.0 300.1 309.2 318.3 327.4 336.5 345.6 354.7 363.8 372.9 382.0 391.1 400.2 409.3 418.4 427.5 436.6 445.7 454.8 463.9 473.0 482.1 491.2 500.3 509.4 518.5 527.6 536.7 545.8 554.9 564.0 573.1 582.2 591.3 600.4 609.5 618.6 627.7 636.8 645.9 655.0" y="128" font-size="15"><tspan fill="#cdd6e6">In-band&#160;(shim/MCP):&#160;</tspan><tspan fill="#6bd6ff">aegis&#160;approve</tspan><tspan fill="#cdd6e6">&#160;&lt;id&gt;&#160;runs&#160;it&#160;where&#160;it&#x27;s&#160;waiting.</tspan></text>
<text x="18.0 27.1 36.2 45.3 54.4 63.5 72.6 81.7 90.8 99.9 109.0 118.1 127.2 136.3 145.4 154.5 163.6 172.7 181.8 190.9 200.0 209.1 218.2 227.3 236.4 245.5 254.6 263.7 272.8 281.9 291.0 300.1 309.2 318.3 327.4 336.5 345.6 354.7 363.8 372.9 382.0 391.1 400.2 409.3 418.4 427.5 436.6 445.7 454.8 463.9 473.0 482.1 491.2 500.3 509.4 518.5 527.6 536.7 545.8 554.9 564.0 573.1 582.2 591.3" y="148" font-size="15"><tspan fill="#cdd6e6">Hook-blocked:&#160;&#160;&#160;&#160;&#160;&#160;&#160;</tspan><tspan fill="#5af78e">aegis&#160;run</tspan><tspan fill="#cdd6e6">&#160;&lt;id&gt;&#160;runs&#160;it&#160;yourself,&#160;reversibly.</tspan></text>
<text x="18" y="168" font-size="15"></text>
<text x="18.0 27.1 36.2 45.3 54.4 63.5 72.6 81.7 90.8 99.9 109.0 118.1 127.2 136.3 145.4 154.5 163.6 172.7 181.8 190.9" y="188" font-size="15"><tspan fill="#cdd6e6">$&#160;</tspan><tspan fill="#5af78e">aegis&#160;run</tspan><tspan fill="#cdd6e6">&#160;50d56fd9</tspan></text>
<text x="18.0 27.1 36.2 45.3 54.4 63.5 72.6 81.7 90.8 99.9 109.0 118.1 127.2 136.3 145.4 154.5 163.6 172.7 181.8 190.9 200.0 209.1 218.2 227.3 236.4 245.5 254.6 263.7 272.8 281.9 291.0 300.1 309.2 318.3 327.4 336.5 345.6 354.7 363.8 372.9 382.0 391.1 400.2 409.3 418.4 427.5 436.6 445.7 454.8 463.9 473.0 482.1 491.2 500.3 509.4 518.5 527.6 536.7 545.8 554.9 564.0 573.1 582.2 591.3 600.4 609.5 618.6" y="208" font-size="15"><tspan fill="#cdd6e6">Run&#160;this&#160;held&#160;command&#160;yourself?&#160;Aegis&#160;snapshots&#160;first,&#160;then&#160;runs&#160;it</tspan></text>
<text x="18.0 27.1 36.2 45.3 54.4 63.5 72.6 81.7 90.8 99.9 109.0 118.1 127.2 136.3 145.4 154.5 163.6 172.7 181.8 190.9 200.0 209.1 218.2 227.3 236.4 245.5 254.6 263.7 272.8 281.9 291.0 300.1 309.2 318.3 327.4 336.5 345.6 354.7 363.8 372.9 382.0 391.1 400.2 409.3 418.4 427.5 436.6 445.7 454.8 463.9 473.0 482.1 491.2 500.3 509.4 518.5 527.6 536.7 545.8 554.9 564.0 573.1" y="228" font-size="15"><tspan fill="#cdd6e6">in&#160;its&#160;original&#160;directory.&#160;The&#160;agent&#160;does&#160;not&#160;run&#160;it&#160;—&#160;you&#160;do.</tspan></text>
<text x="18" y="248" font-size="15"></text>
<text x="18.0 27.1 36.2 45.3 54.4 63.5 72.6 81.7 90.8 99.9 109.0 118.1 127.2 136.3 145.4 154.5 163.6 172.7 181.8 190.9 200.0 209.1 218.2 227.3 236.4 245.5 254.6 263.7 272.8 281.9 291.0" y="268" font-size="15"><tspan fill="#cdd6e6">&#160;&#160;&#160;&#160;</tspan><tspan fill="#ff5d5d">rm&#160;-rf&#160;site/.playwright-mcp</tspan></text>
<text x="18" y="288" font-size="15"></text>
<text x="18.0 27.1 36.2 45.3 54.4 63.5 72.6 81.7 90.8 99.9 109.0 118.1 127.2 136.3 145.4 154.5 163.6 172.7 181.8 190.9 200.0 209.1 218.2 227.3 236.4 245.5 254.6 263.7 272.8 281.9 291.0 300.1 309.2 318.3" y="308" font-size="15"><tspan fill="#cdd6e6">&#160;&#160;dir:&#160;&#160;&#160;&#160;~/Documents/GitHub/aegis</tspan></text>
<text x="18.0 27.1 36.2 45.3 54.4 63.5 72.6 81.7 90.8 99.9 109.0 118.1 127.2 136.3 145.4 154.5 163.6 172.7 181.8 190.9 200.0 209.1" y="328" font-size="15"><tspan fill="#cdd6e6">&#160;&#160;class:&#160;&#160;</tspan><tspan fill="#ff5d5d">catastrophic</tspan></text>
<text x="18.0 27.1 36.2 45.3 54.4 63.5 72.6 81.7 90.8 99.9 109.0 118.1 127.2 136.3 145.4 154.5 163.6 172.7 181.8 190.9 200.0 209.1" y="348" font-size="15"><tspan fill="#cdd6e6">&#160;&#160;reason:&#160;</tspan><tspan fill="#ffd866">rm:recursive</tspan></text>
<text x="18.0 27.1 36.2 45.3 54.4 63.5 72.6 81.7 90.8 99.9 109.0 118.1 127.2 136.3 145.4 154.5 163.6 172.7 181.8 190.9 200.0 209.1 218.2 227.3 236.4 245.5 254.6 263.7 272.8 281.9 291.0 300.1 309.2 318.3 327.4 336.5 345.6 354.7 363.8 372.9 382.0 391.1 400.2 409.3 418.4 427.5 436.6 445.7 454.8 463.9 473.0 482.1 491.2 500.3 509.4 518.5 527.6 536.7 545.8 554.9 564.0 573.1 582.2 591.3 600.4 609.5 618.6 627.7 636.8 645.9 655.0 664.1 673.2 682.3" y="368" font-size="15"><tspan fill="#cdd6e6">&#160;&#160;undo:&#160;&#160;&#160;</tspan><tspan fill="#6bd6ff">aegis&#160;undo</tspan><tspan fill="#cdd6e6">&#160;can&#160;roll&#160;this&#160;back&#160;—&#160;the&#160;snapshot&#160;covers&#160;its&#160;targets.</tspan></text>
<text x="18" y="388" font-size="15"></text>
<text x="18.0 27.1 36.2 45.3 54.4 63.5 72.6 81.7 90.8 99.9 109.0 118.1 127.2 136.3 145.4 154.5 163.6 172.7 181.8 190.9 200.0 209.1 218.2 227.3 236.4 245.5 254.6 263.7 272.8 281.9 291.0 300.1 309.2 318.3 327.4 336.5 345.6 354.7 363.8 372.9 382.0 391.1 400.2 409.3 418.4 427.5 436.6 445.7 454.8 463.9 473.0 482.1 491.2 500.3 509.4 518.5 527.6 536.7 545.8 554.9 564.0 573.1 582.2 591.3 600.4 609.5 618.6 627.7 636.8 645.9 655.0 664.1 673.2 682.3 691.4 700.5 709.6" y="408" font-size="15"><tspan fill="#cdd6e6">This&#160;prompt&#160;is&#160;Aegis&#160;(not&#160;the&#160;agent).&#160;To&#160;run&#160;it,&#160;type&#160;&#160;</tspan><tspan fill="#ffd866">3f9a</tspan><tspan fill="#cdd6e6">&#160;&#160;then&#160;Enter:&#160;</tspan><tspan fill="#ffd866">3f9a</tspan></text>
<text x="18.0 27.1 36.2 45.3 54.4 63.5 72.6 81.7 90.8 99.9 109.0 118.1 127.2 136.3 145.4 154.5 163.6 172.7 181.8 190.9 200.0 209.1 218.2 227.3 236.4 245.5 254.6 263.7 272.8 281.9 291.0 300.1 309.2 318.3 327.4 336.5 345.6 354.7 363.8 372.9 382.0 391.1 400.2" y="428" font-size="15"><tspan fill="#5af78e">✓</tspan><tspan fill="#cdd6e6">&#160;ran&#160;50d56fd9.&#160;Reverse&#160;it&#160;with&#160;</tspan><tspan fill="#6bd6ff">aegis&#160;undo</tspan><tspan fill="#cdd6e6">.</tspan></text>
</svg>