<svg xmlns="http://www.w3.org/2000/svg" width="764" height="240" viewBox="0 0 764 240" font-family="ui-monospace,DejaVu Sans Mono,Consolas,monospace">
<rect x="1" y="1" width="762" height="238" rx="8" fill="#070a11" stroke="#283557" stroke-width="3"/>
<rect x="1" y="1" width="762" height="34" rx="8" fill="#141c30"/>
<rect x="1" y="20" width="762" height="15" fill="#141c30"/>
<rect x="18" y="12" width="11" height="11" fill="#ff5d5d"/>
<rect x="36" y="12" width="11" height="11" fill="#ffd866"/>
<rect x="54" y="12" width="11" height="11" fill="#5af78e"/>
<text x="74" y="22" font-size="11" fill="#8b95ad">agent proposes: rm -rf src</text>
<text x="18" y="48" font-size="15"></text>
<text x="18.0 27.1 36.2 45.3 54.4 63.5 72.6 81.7 90.8 99.9 109.0 118.1 127.2 136.3 145.4 154.5 163.6 172.7 181.8 190.9 200.0 209.1 218.2 227.3 236.4 245.5 254.6 263.7 272.8 281.9 291.0 300.1 309.2 318.3 327.4 336.5 345.6 354.7 363.8 372.9 382.0 391.1 400.2 409.3 418.4 427.5 436.6 445.7 454.8 463.9 473.0 482.1 491.2 500.3 509.4 518.5 527.6 536.7 545.8 554.9" y="68" font-size="15"><tspan fill="#8b95ad">────────────────────────────────────────────────────────────</tspan></text>
<text x="18.0 27.1 36.2 45.3 54.4 63.5 72.6 81.7 90.8 99.9 109.0 118.1 127.2 136.3 145.4 154.5 163.6 172.7 181.8 190.9 200.0 209.1 218.2 227.3 236.4 245.5 254.6 263.7 272.8 281.9 291.0 300.1 309.2 318.3 327.4 336.5 345.6 354.7 363.8 372.9 382.0 391.1 400.2 409.3 418.4 427.5 436.6 445.7 454.8 463.9 473.0 482.1 491.2 500.3 509.4 518.5 527.6 536.7 545.8 554.9 564.0 573.1 582.2 591.3 600.4" y="88" font-size="15"><tspan fill="#ff5d5d">⚠&#160;Aegis&#160;hold&#160;—&#160;This&#160;command&#160;is&#160;catastrophic&#160;and&#160;cannot&#160;be&#160;undone.</tspan></text>
<text x="18.0 27.1 36.2 45.3 54.4 63.5 72.6 81.7 90.8 99.9 109.0 118.1 127.2 136.3 145.4 154.5 163.6 172.7 181.8 190.9 200.0 209.1 218.2 227.3 236.4 245.5 254.6 263.7 272.8 281.9 291.0 300.1 309.2 318.3 327.4 336.5 345.6 354.7 363.8 372.9 382.0 391.1 400.2 409.3 418.4 427.5 436.6 445.7 454.8 463.9 473.0 482.1 491.2 500.3 509.4 518.5 527.6 536.7 545.8 554.9 564.0 573.1 582.2 591.3 600.4 609.5 618.6 627.7 636.8 645.9 655.0 664.1 673.2 682.3 691.4 700.5 709.6 718.7 727.8 736.9" y="108" font-size="15"><tspan fill="#cdd6e6">&#160;&#160;recursively&#160;deletes&#160;files&#160;and&#160;directories.&#160;This&#160;is&#160;hard&#160;or&#160;impossible&#160;to&#160;undo.</tspan></text>
<text x="18" y="128" font-size="15"></text>
<text x="18.0 27.1 36.2 45.3 54.4 63.5 72.6 81.7 90.8 99.9 109.0 118.1 127.2 136.3" y="148" font-size="15"><tspan fill="#cdd6e6">&#160;&#160;&#160;&#160;</tspan><tspan fill="#ffffff">rm&#160;-rf&#160;src</tspan></text>
<text x="18" y="168" font-size="15"></text>
<text x="18.0 27.1 36.2 45.3 54.4 63.5 72.6 81.7 90.8 99.9 109.0 118.1 127.2 136.3 145.4 154.5 163.6 172.7 181.8 190.9 200.0 209.1 218.2 227.3 236.4 245.5 254.6 263.7 272.8 281.9 291.0 300.1 309.2 318.3 327.4 336.5 345.6 354.7 363.8 372.9 382.0 391.1 400.2 409.3 418.4 427.5 436.6 445.7 454.8 463.9 473.0" y="188" font-size="15"><tspan fill="#cdd6e6">&#160;&#160;</tspan><tspan fill="#ffd866">[a]&#160;allow&#160;once&#160;&#160;&#160;[d]&#160;deny&#160;&#160;&#160;[r]&#160;always&#160;allow&#160;here</tspan></text>
<text x="18.0 27.1 36.2 45.3 54.4 63.5 72.6 81.7 90.8 99.9 109.0 118.1 127.2 136.3 145.4 154.5 163.6 172.7 181.8 190.9 200.0 209.1 218.2 227.3 236.4 245.5 254.6 263.7 272.8 281.9 291.0 300.1 309.2 318.3 327.4 336.5 345.6 354.7 363.8 372.9 382.0 391.1 400.2 409.3 418.4 427.5 436.6 445.7 454.8 463.9 473.0 482.1 491.2 500.3 509.4 518.5 527.6 536.7 545.8 554.9" y="208" font-size="15"><tspan fill="#8b95ad">────────────────────────────────────────────────────────────</tspan></text>
</svg>