<svg xmlns="http://www.w3.org/2000/svg" viewBox="0 0 430 80" width="430" height="80" role="img" aria-label="Kintsugi">
  <title>Kintsugi — a local-first safety layer for AI coding agents</title>
  <defs>
    <linearGradient id="gold" x1="0" y1="0" x2="1" y2="1">
      <stop offset="0" stop-color="#F6DC8A"/>
      <stop offset="0.5" stop-color="#D4AF37"/>
      <stop offset="1" stop-color="#9C6F1C"/>
    </linearGradient>
    <linearGradient id="shard" x1="0" y1="0" x2="1" y2="1">
      <stop offset="0" stop-color="#1A1F27"/>
      <stop offset="1" stop-color="#0A0D12"/>
    </linearGradient>
    <linearGradient id="goldText" x1="0" y1="0" x2="0" y2="1">
      <stop offset="0" stop-color="#EBC65A"/>
      <stop offset="1" stop-color="#B8860B"/>
    </linearGradient>
    <clipPath id="cut">
      <path d="M32 3 L51 13 L55 31 L45 53 L30 61 L15 51 L9 31 L19 11 Z"/>
    </clipPath>
  </defs>

  <!-- mark -->
  <g transform="translate(8,8)">
    <path d="M32 3 L51 13 L55 31 L45 53 L30 61 L15 51 L9 31 L19 11 Z" fill="url(#shard)" stroke="#2A313C" stroke-width="1"/>
    <path d="M32 3 L19 11 L9 31 L15 51 L30 61 L28 42 L34 30 L29 18 Z" fill="#222A34" clip-path="url(#cut)" opacity="0.7"/>
    <g clip-path="url(#cut)">
      <g fill="none" stroke="#D4AF37" stroke-opacity="0.16" stroke-linecap="round" stroke-linejoin="round" stroke-width="6">
        <path d="M30 5 L29 18 L34 30 L28 42 L31 60"/>
      </g>
      <g fill="none" stroke="url(#gold)" stroke-linecap="round" stroke-linejoin="round">
        <path d="M30 5 L29 18 L34 30 L28 42 L31 60" stroke-width="3"/>
        <path d="M29 18 L17 15 L11 22" stroke-width="2"/>
        <path d="M29 18 L41 13" stroke-width="1.7"/>
        <path d="M34 30 L48 27 L54 33" stroke-width="2"/>
        <path d="M34 30 L22 34 L16 41" stroke-width="1.7"/>
        <path d="M28 42 L40 47 L47 53" stroke-width="1.9"/>
        <path d="M28 42 L21 49" stroke-width="1.4"/>
        <path d="M11 22 L7 30" stroke-width="1"/>
        <path d="M48 27 L50 19" stroke-width="1"/>
        <path d="M40 47 L44 41" stroke-width="1"/>
        <path d="M30 5 L29 18 L34 30 L28 42 L31 60" stroke="#FBEFC2" stroke-opacity="0.5" stroke-width="0.8"/>
      </g>
      <g fill="url(#gold)">
        <circle cx="29" cy="18" r="2.3"/><circle cx="34" cy="30" r="2.6"/><circle cx="28" cy="42" r="2.2"/>
        <circle cx="11" cy="22" r="1.3"/><circle cx="48" cy="27" r="1.3"/><circle cx="40" cy="47" r="1.2"/>
      </g>
    </g>
    <g fill="#D4AF37">
      <circle cx="58" cy="20" r="0.9" opacity="0.9"/><circle cx="6" cy="40" r="0.8" opacity="0.85"/><circle cx="50" cy="58" r="0.7" opacity="0.75"/>
    </g>
  </g>

  <!-- wordmark -->
  <text x="92" y="44" font-family="ui-monospace, SFMono-Regular, Menlo, Consolas, monospace"
        font-size="32" font-weight="700" letter-spacing="3" fill="url(#goldText)">KINTSUGI</text>
  <text x="94" y="62" font-family="ui-monospace, SFMono-Regular, Menlo, Consolas, monospace"
        font-size="11" letter-spacing="0.5" fill="#8A8F98">a local-first safety layer for AI coding agents</text>
</svg>
